<?xml version="1.0" encoding="utf-8"?>
<!-- Generator: Adobe Illustrator 21.1.0, SVG Export Plug-In . SVG Version: 6.00 Build 0)  -->
<svg version="1.1" id="Capa_1" xmlns="http://www.w3.org/2000/svg" xmlns:xlink="http://www.w3.org/1999/xlink" x="0px" y="0px"
	 viewBox="0 0 481.9 121.8" style="enable-background:new 0 0 481.9 121.8;" xml:space="preserve">
<style type="text/css">
	.st0{fill:#4E5185;}
	.st1{fill:#3C3C3B;}
	.st2{fill:#FFFFFF;}
	.st3{fill:none;stroke:#000000;stroke-width:0.25;stroke-miterlimit:10;}
	.st4{fill:#FFED00;}
</style>
<g>
	<rect class="st0" width="149.2" height="120"/>
	<rect x="152.8" class="st1" width="329.1" height="120"/>
	<g>
		<path class="st2" d="M198.8,41.2c0,0.3-0.1,0.5-0.3,0.5c-0.2,0-0.4-0.2-0.5-0.6c-0.1-0.4-0.4-0.8-0.7-1.1
			c-0.4-0.3-0.8-0.6-1.3-0.9c-1-0.5-2.1-0.7-3.3-0.7c-1.2,0-2.2,0.2-3,0.5c-0.9,0.3-1.6,0.8-2.2,1.3c-1.3,1.2-1.9,2.9-1.9,5
			c0,2.3,0.7,4.3,2.1,5.8c1.4,1.5,3.2,2.3,5.5,2.3c2.5,0,4.4-1.1,5.7-3.4c0.1-0.1,0.2-0.2,0.3-0.2c0.1,0,0.2,0.1,0.3,0.3
			c0.1,0.2,0.1,0.4,0.1,0.7c0,0.4-0.3,0.9-1,1.6c-0.7,0.7-1.5,1.2-2.5,1.6c-1,0.4-2.1,0.6-3.5,0.6c-1.3,0-2.6-0.2-3.7-0.6
			c-1.2-0.4-2.2-1-3-1.8c-1.7-1.5-2.6-3.5-2.6-5.8c0-2.6,0.9-4.7,2.6-6.3c1.7-1.6,4-2.4,6.9-2.4c2.1,0,3.7,0.3,5.1,0.8
			c0.3,0.1,0.4,0.2,0.5,0.3c0.2,0.2,0.3,0.6,0.3,1c0,0.5,0,0.8,0.1,0.9C198.8,40.8,198.8,41.1,198.8,41.2z"/>
		<path class="st2" d="M201.5,45.7c0-1.2,0.2-2.4,0.7-3.4c0.5-1,1.1-1.9,1.9-2.7c0.8-0.7,1.7-1.3,2.7-1.7c1-0.4,2.1-0.6,3.3-0.6
			s2.3,0.2,3.3,0.7c1,0.4,1.9,1,2.6,1.8c1.5,1.6,2.3,3.7,2.3,6.2c0,2.4-0.8,4.3-2.4,5.9c-1.6,1.6-3.7,2.4-6.2,2.4
			c-2.4,0-4.5-0.8-6-2.5C202.3,50.2,201.5,48.2,201.5,45.7z M203.6,45c0,1.1,0.2,2.1,0.5,3.1c0.3,1,0.8,1.9,1.5,2.7
			c1.4,1.6,3.1,2.5,5.2,2.5c1.6,0,2.9-0.6,3.9-1.8c1.1-1.2,1.6-2.9,1.6-4.9c0-2.4-0.6-4.4-1.9-5.9c-1.3-1.5-2.9-2.3-4.8-2.3
			c-1.6,0-3,0.6-4.1,1.8C204.2,41.4,203.6,43.1,203.6,45z"/>
		<path class="st2" d="M221.1,54.2c-0.4,0-0.7-0.2-0.7-0.5c0-0.2,0.1-0.4,0.4-0.4l0.6,0.1c0.5,0,0.8-0.3,1-0.8
			c0.1-0.5,0.2-1.3,0.2-2.5v-8.6c0-1.2-0.1-2-0.2-2.3c-0.1-0.4-0.3-0.6-0.4-0.8c-0.2-0.1-0.4-0.2-0.6-0.2l-0.6,0
			c-0.3,0-0.4-0.1-0.4-0.4c0-0.3,0.2-0.5,0.7-0.5c0.4,0,0.9,0,1.3,0.1c0.4,0.1,0.8,0.1,1.3,0.1c0.4,0,0.9,0,1.2-0.1
			c0.4-0.1,0.8-0.1,1.3-0.1c0.4,0,0.7,0.2,0.7,0.5c0,0.2-0.1,0.4-0.4,0.4l-0.6,0c-0.5,0-0.8,0.3-1,0.8c-0.1,0.4-0.2,1.3-0.2,2.5v6.9
			c0,1.8,0,3.3,0.1,4.4c0.6,0.2,1.3,0.2,2,0.2c0.7,0,1.3,0,1.9-0.1c0.5-0.1,1-0.2,1.4-0.4c0.7-0.3,1.3-0.8,1.7-1.5
			c0.2-0.3,0.3-0.4,0.5-0.4c0.2,0,0.2,0.1,0.2,0.4c0,0.1,0,0.2-0.1,0.4c-0.1,0.2-0.2,0.5-0.3,0.9s-0.2,0.7-0.3,1
			c-0.1,0.2-0.2,0.4-0.3,0.6c-0.2,0.3-0.5,0.4-0.8,0.4c-0.3,0-0.7,0-1,0c-0.3,0-0.6,0-1,0c-0.3,0-0.7,0-1.1,0c-0.4,0-0.8,0-1.3-0.1
			c-0.5,0-0.9,0-1.3-0.1s-0.7,0-1.1,0c-0.4,0-0.7,0-0.9,0c-0.2,0-0.5,0-0.7,0.1c-0.2,0-0.4,0-0.6,0.1
			C221.6,54.2,221.4,54.2,221.1,54.2z"/>
		<path class="st2" d="M234.5,54.2c-0.4,0-0.7-0.2-0.7-0.5c0-0.2,0.1-0.4,0.4-0.4l0.6,0.1c0.5,0,0.8-0.2,0.9-0.6
			c0.2-0.4,0.3-1.3,0.3-2.7v-8.7c0-1.3-0.1-2.2-0.2-2.5c-0.1-0.3-0.3-0.6-0.4-0.7c-0.2-0.1-0.4-0.1-0.6-0.1l-0.6,0
			c-0.3,0-0.4-0.1-0.4-0.4c0-0.3,0.2-0.5,0.7-0.5c0.4,0,0.8,0,1.1,0c0.3,0,0.6,0,0.8,0.1c0.8,0.1,1.4,0.1,1.8,0.1c0.4,0,0.9,0,1.4,0
			s1,0,1.6-0.1c1.6-0.1,2.7-0.1,3.3-0.1c0.6,0,1,0,1,0.1c0.1,0.1,0.1,0.2,0.1,0.3s0,0.2,0,0.4c0,0.1,0,0.2,0,0.4
			c0,0.2,0,0.5-0.1,0.8c0,0.4-0.1,0.6-0.1,0.7c-0.1,0.1-0.1,0.2-0.2,0.2c-0.1,0-0.2,0-0.2-0.1c0-0.1-0.1-0.2-0.2-0.4
			c-0.1-0.2-0.2-0.4-0.4-0.5c-0.2-0.2-0.5-0.3-0.8-0.4c-0.7-0.2-2.1-0.3-4.1-0.3h-1.1c-0.2,0-0.3,0-0.4,0.1
			c-0.1,0.1-0.1,0.2-0.1,0.4v5.1c1,0.1,1.8,0.2,2.4,0.2c0.6,0,1.1,0,1.4,0c0.3,0,0.5,0,0.7-0.1c0.3-0.1,0.5-0.2,0.7-0.4
			c0.3-0.4,0.5-0.6,0.7-0.6c0.2,0,0.3,0.1,0.3,0.3l-0.4,1.7l0,0.9c0,0.6-0.1,0.9-0.4,0.9c-0.2,0-0.4-0.2-0.4-0.5s0-0.5-0.1-0.7
			c0-0.2-0.1-0.3-0.3-0.4c-0.3-0.1-0.9-0.2-1.9-0.2c-1,0-1.9,0-2.7,0.1v2.9c0,1.8,0,3.3,0.1,4.5c0.7,0.1,1.4,0.2,2.1,0.2
			c0.8,0,1.4,0,2-0.1c0.5,0,1-0.1,1.4-0.2c0.8-0.2,1.4-0.7,1.7-1.4c0.2-0.3,0.3-0.4,0.5-0.4c0.2,0,0.2,0.1,0.2,0.4
			c0,0.1,0,0.2-0.1,0.4c-0.1,0.2-0.2,0.5-0.3,0.9c-0.1,0.4-0.2,0.7-0.3,0.9c-0.1,0.2-0.1,0.3-0.2,0.4c-0.1,0.2-0.4,0.2-0.7,0.2
			c-0.4,0-0.7,0-1,0c-0.3,0-0.7,0-1,0c-0.4,0-1.1,0-2-0.1c-2.2-0.1-3.5-0.1-3.9-0.1c-0.4,0-0.7,0.1-0.9,0.1c-0.2,0-0.4,0-0.6,0.1
			C235,54.2,234.7,54.2,234.5,54.2z"/>
		<path class="st2" d="M264.3,46.2c0.3,0,0.5,0.1,0.5,0.4c0,0.1,0,0.2-0.1,0.3c-0.1,0.1-0.2,0.1-0.3,0.2c-0.2,0.1-0.3,0.1-0.3,0.2
			c-0.1,0.1-0.1,0.2-0.2,0.4c-0.1,0.4-0.1,0.8-0.1,1.3c0,0.5,0,0.8,0,1c0,0.2,0,0.3,0,0.5c0,0.6,0.1,1,0.1,1.2
			c0,0.2,0.1,0.4,0.1,0.5c0,0.2-0.1,0.4-0.3,0.5c-0.2,0.2-0.5,0.4-0.8,0.5c-0.4,0.2-0.8,0.3-1.2,0.5c-0.5,0.1-0.9,0.3-1.4,0.3
			c-1,0.2-1.9,0.3-2.8,0.3c-2.9,0-5.2-0.8-6.9-2.5c-1.5-1.5-2.3-3.5-2.3-5.8c0-2.6,0.9-4.7,2.6-6.3c1.7-1.6,4-2.4,6.8-2.4
			c2.1,0,3.8,0.3,5,0.8c0.2,0.1,0.4,0.2,0.5,0.3c0.2,0.2,0.3,0.6,0.3,1c0,0.5,0,0.8,0.1,1c0,0.4,0,0.7,0,0.8c0,0.3-0.1,0.5-0.3,0.5
			c-0.2,0-0.4-0.2-0.5-0.6c-0.1-0.4-0.4-0.8-0.7-1.1c-0.4-0.4-0.8-0.7-1.3-0.9c-1-0.5-2.1-0.7-3.2-0.7c-1.2,0-2.2,0.2-3,0.5
			c-0.8,0.3-1.5,0.8-2.1,1.4c-1.2,1.3-1.8,2.9-1.8,5.1c0,2.3,0.7,4.2,2.1,5.8c0.7,0.7,1.4,1.3,2.3,1.8c0.9,0.4,1.9,0.6,3,0.6
			c1.7,0,2.8-0.3,3.3-1c0.3-0.4,0.5-1,0.5-1.7V48c0-0.4-0.1-0.6-0.3-0.7c-0.2-0.1-0.6-0.2-1-0.2c-0.7,0-1-0.2-1-0.5s0.3-0.5,0.8-0.5
			l2.5,0.2L264.3,46.2z"/>
		<path class="st2" d="M267.4,54.2c-0.5,0-0.8-0.2-0.8-0.5c0-0.2,0.1-0.4,0.4-0.4l0.6,0.1c0.4,0,0.7-0.2,0.9-0.6
			c0.2-0.5,0.3-1.4,0.3-2.7l-0.1-8.6c0-1.3-0.1-2.2-0.2-2.5c-0.1-0.3-0.3-0.6-0.4-0.6c-0.2-0.1-0.3-0.1-0.5-0.1l-0.6,0
			c-0.3,0-0.4-0.1-0.4-0.4c0-0.3,0.2-0.5,0.7-0.5c0.4,0,0.9,0,1.3,0.1c0.4,0.1,0.8,0.1,1.3,0.1s0.9,0,1.3-0.1
			c0.4-0.1,0.8-0.1,1.3-0.1c0.4,0,0.7,0.2,0.7,0.5c0,0.2-0.1,0.4-0.4,0.4l-0.6,0c-0.4,0-0.7,0.2-0.9,0.6c-0.2,0.5-0.3,1.4-0.3,2.7
			l0.1,8.6c0,1.3,0.1,2.1,0.2,2.5c0.2,0.4,0.3,0.6,0.5,0.7c0.2,0.1,0.3,0.1,0.6,0.1l0.6-0.1c0.3,0,0.4,0.1,0.4,0.4
			c0,0.3-0.3,0.5-0.8,0.5c-0.3,0-0.6,0-0.9-0.1c-1-0.2-1.9-0.2-2.6-0.1C268.1,54.1,267.6,54.2,267.4,54.2z"/>
		<path class="st2" d="M275.1,45.7c0-1.2,0.2-2.4,0.7-3.4c0.5-1,1.1-1.9,1.9-2.7c0.8-0.7,1.7-1.3,2.7-1.7c1-0.4,2.1-0.6,3.3-0.6
			s2.3,0.2,3.3,0.7c1,0.4,1.9,1,2.6,1.8c1.5,1.6,2.3,3.7,2.3,6.2c0,2.4-0.8,4.3-2.4,5.9c-1.6,1.6-3.7,2.4-6.2,2.4
			c-2.4,0-4.5-0.8-6-2.5C275.8,50.2,275.1,48.2,275.1,45.7z M277.2,45c0,1.1,0.2,2.1,0.5,3.1c0.3,1,0.8,1.9,1.5,2.7
			c1.4,1.6,3.1,2.5,5.2,2.5c1.6,0,2.9-0.6,3.9-1.8c1.1-1.2,1.6-2.9,1.6-4.9c0-2.4-0.6-4.4-1.9-5.9c-1.3-1.5-2.9-2.3-4.8-2.3
			c-1.6,0-3,0.6-4.1,1.8C277.8,41.4,277.2,43.1,277.2,45z"/>
		<path class="st2" d="M301.2,54.2c-0.5,0-0.8-0.2-0.8-0.5c0-0.2,0.1-0.4,0.4-0.4l0.6,0.1c0.5,0,0.8-0.3,1-0.8
			c0.1-0.5,0.2-1.3,0.2-2.5v-8.6c0-1.2-0.1-2-0.2-2.3c-0.1-0.4-0.3-0.6-0.4-0.8c-0.2-0.1-0.4-0.2-0.6-0.2l-0.6,0
			c-0.3,0-0.4-0.1-0.4-0.4c0-0.3,0.2-0.5,0.7-0.5c0.4,0,0.8,0,1.2,0.1c0.3,0.1,0.7,0.1,1,0.1c0.9,0,1.6,0,2.1-0.1
			c0.9-0.1,1.9-0.2,3-0.2c1.1,0,2.2,0.2,3.3,0.6c1.1,0.4,2.1,1,2.9,1.7c1.7,1.6,2.6,3.6,2.6,6.1c0,2.4-0.8,4.4-2.5,6
			c-1.7,1.7-4,2.5-6.8,2.5c-0.7,0-1.3,0-2-0.1c-1.2-0.1-2-0.2-2.6-0.2L301.2,54.2z M304.6,48.4c0,1.4,0,2.8,0.1,4
			c1.1,0.6,2.3,0.8,3.6,0.8c1,0,2-0.2,3.1-0.7c1.7-0.7,2.8-2,3.3-3.9c0.2-0.7,0.3-1.5,0.3-2.6c0-1.1-0.2-2.1-0.5-3.1
			c-0.4-1-0.9-1.8-1.5-2.5c-1.3-1.4-3.1-2.1-5.4-2.1c-1.6,0-2.5,0.2-2.8,0.6c-0.1,0.2-0.2,0.5-0.2,0.8c0,0.3,0,0.6,0,0.8V48.4z"/>
		<path class="st2" d="M319.8,54.2c-0.4,0-0.7-0.2-0.7-0.5c0-0.2,0.1-0.4,0.4-0.4l0.6,0.1c0.5,0,0.8-0.2,0.9-0.6
			c0.2-0.4,0.3-1.3,0.3-2.7v-8.7c0-1.3-0.1-2.2-0.2-2.5c-0.1-0.3-0.3-0.6-0.4-0.7c-0.2-0.1-0.4-0.1-0.6-0.1l-0.6,0
			c-0.3,0-0.4-0.1-0.4-0.4c0-0.3,0.2-0.5,0.7-0.5c0.4,0,0.8,0,1.1,0c0.3,0,0.6,0,0.8,0.1c0.8,0.1,1.4,0.1,1.8,0.1c0.4,0,0.9,0,1.4,0
			s1,0,1.6-0.1c1.6-0.1,2.7-0.1,3.3-0.1c0.6,0,1,0,1,0.1c0.1,0.1,0.1,0.2,0.1,0.3s0,0.2,0,0.4c0,0.1,0,0.2,0,0.4
			c0,0.2,0,0.5-0.1,0.8c0,0.4-0.1,0.6-0.1,0.7c-0.1,0.1-0.1,0.2-0.2,0.2c-0.1,0-0.2,0-0.2-0.1c0-0.1-0.1-0.2-0.2-0.4
			c-0.1-0.2-0.2-0.4-0.4-0.5c-0.2-0.2-0.5-0.3-0.8-0.4c-0.7-0.2-2.1-0.3-4.1-0.3h-1.1c-0.2,0-0.3,0-0.4,0.1
			c-0.1,0.1-0.1,0.2-0.1,0.4v5.1c1,0.1,1.8,0.2,2.4,0.2c0.6,0,1.1,0,1.4,0c0.3,0,0.5,0,0.7-0.1c0.3-0.1,0.5-0.2,0.7-0.4
			c0.3-0.4,0.5-0.6,0.7-0.6c0.2,0,0.3,0.1,0.3,0.3l-0.4,1.7l0,0.9c0,0.6-0.1,0.9-0.4,0.9c-0.2,0-0.4-0.2-0.4-0.5s0-0.5-0.1-0.7
			c0-0.2-0.1-0.3-0.3-0.4c-0.3-0.1-0.9-0.2-1.9-0.2c-1,0-1.9,0-2.7,0.1v2.9c0,1.8,0,3.3,0.1,4.5c0.7,0.1,1.4,0.2,2.1,0.2
			c0.8,0,1.4,0,2-0.1c0.5,0,1-0.1,1.4-0.2c0.8-0.2,1.4-0.7,1.7-1.4c0.2-0.3,0.3-0.4,0.5-0.4c0.2,0,0.2,0.1,0.2,0.4
			c0,0.1,0,0.2-0.1,0.4c-0.1,0.2-0.2,0.5-0.3,0.9c-0.1,0.4-0.2,0.7-0.3,0.9c-0.1,0.2-0.1,0.3-0.2,0.4c-0.1,0.2-0.4,0.2-0.7,0.2
			c-0.4,0-0.7,0-1,0c-0.3,0-0.7,0-1,0c-0.4,0-1.1,0-2-0.1c-2.2-0.1-3.5-0.1-3.9-0.1c-0.4,0-0.7,0.1-0.9,0.1c-0.2,0-0.4,0-0.6,0.1
			C320.3,54.2,320.1,54.2,319.8,54.2z"/>
		<path class="st2" d="M183.7,84.1c-0.4,0.1-0.8,0.1-1.2,0.1c-0.4,0-0.6-0.1-0.6-0.4s0.2-0.4,0.6-0.4c0.4,0,0.7-0.1,0.9-0.2
			c0.3-0.3,0.5-0.7,0.8-1.2c0.3-0.6,0.5-1.1,0.8-1.6c0.2-0.5,0.5-1.1,0.8-1.7c0.3-0.7,0.6-1.4,1-2.2c0.4-0.8,0.7-1.7,1.1-2.6
			c1-2.4,1.7-4,2.1-4.9c0.3-0.8,0.5-1.3,0.6-1.4c0-0.1,0.1-0.2,0.1-0.2c0.1-0.2,0.2-0.3,0.3-0.3s0.1,0,0.2,0c0,0,0.1,0.1,0.2,0.1
			c0.1,0.2,0.2,0.4,0.4,0.7c0.1,0.3,0.3,0.7,0.5,1.2c0.2,0.5,0.4,1.1,0.7,1.8c0.3,0.7,0.6,1.4,0.9,2.1c0.3,0.8,0.6,1.5,0.9,2.3
			c0.3,0.8,0.6,1.5,0.9,2.2c0.3,0.7,0.5,1.3,0.8,1.9c0.7,1.7,1.1,2.7,1.3,3.1c0.2,0.3,0.4,0.6,0.5,0.7c0.2,0.2,0.5,0.3,0.9,0.3
			c0.4,0,0.6,0.1,0.6,0.4s-0.3,0.4-0.8,0.4c-0.2,0-0.4,0-0.6,0c-0.2,0-0.3,0-0.5-0.1c-0.5-0.1-0.9-0.1-1.3-0.1l-2.4,0.2
			c-0.5,0-0.8-0.2-0.8-0.5c0-0.2,0.1-0.4,0.4-0.4l0.7,0.1c0.3,0,0.5-0.1,0.6-0.2c0.1-0.1,0.1-0.3,0.1-0.5c0-0.4-0.2-1-0.5-1.8
			l-1-2.5h-6.8c-0.2,0.5-0.4,0.9-0.5,1.3c-0.2,0.4-0.3,0.8-0.5,1.2c-0.2,0.6-0.3,1.1-0.3,1.5c0,0.4,0.1,0.6,0.2,0.8
			c0.1,0.2,0.4,0.3,0.7,0.3l0.7-0.1c0.3,0,0.4,0.1,0.4,0.4c0,0.3-0.3,0.5-0.8,0.5l-2-0.2C184.4,84,184,84,183.7,84.1z M193.3,77.4
			l-2.9-7.3c-0.6,1.4-1.6,3.8-3,7.3H193.3z"/>
		<path class="st2" d="M201,84.2c-0.5,0-0.8-0.2-0.8-0.5c0-0.2,0.1-0.4,0.4-0.4l0.6,0.1c0.4,0,0.7-0.2,0.9-0.6
			c0.2-0.5,0.3-1.4,0.3-2.7v-8.6c0-1.4-0.1-2.2-0.2-2.6c-0.1-0.3-0.3-0.6-0.5-0.6c-0.2-0.1-0.4-0.1-0.6-0.1l-0.5,0.1
			c-0.3,0-0.4-0.1-0.4-0.4c0-0.3,0.2-0.5,0.7-0.5c0.4,0,0.8,0,1.2,0.1c0.3,0.1,0.7,0.1,1,0.1c0.3,0,0.6,0,0.8,0
			c0.3,0,0.5-0.1,0.8-0.1c0.8-0.1,1.5-0.2,2.1-0.2s1.2,0.1,1.8,0.3c0.6,0.2,1.1,0.4,1.5,0.7c0.9,0.7,1.3,1.5,1.3,2.6
			c0,1.4-0.6,2.6-1.8,3.5c1,0.3,1.9,0.9,2.6,1.7c0.7,0.9,1.1,1.9,1.1,3c0,1.5-0.5,2.8-1.5,3.8c-1,1-2.4,1.4-4,1.4
			c-0.5,0-1.1,0-1.8-0.1c-1.3-0.1-2.2-0.2-2.7-0.2L201,84.2z M204.3,74.2c0.9,0.1,1.7,0.1,2.2,0.1c0.8,0,1.3,0,1.5,0
			c0.2,0,0.4-0.1,0.5-0.2c0.2-0.1,0.3-0.3,0.4-0.5c0.3-0.5,0.5-1,0.5-1.6c0-0.6-0.1-1.1-0.3-1.5s-0.5-0.8-0.8-1.1
			c-0.7-0.6-1.5-0.9-2.6-0.9c-0.5,0-1,0.1-1.4,0.3c0,0.4,0,0.7,0,0.9c0,0.2,0,0.4,0,0.6c0,0.2,0,0.3,0,0.4V74.2z M210,76.7
			c-0.3-0.4-0.8-0.8-1.2-1c-0.5-0.3-1-0.4-1.4-0.4H206c-0.5,0-1,0-1.7,0.1v3c0,1.8,0,3.2,0.1,4.2c0.7,0.5,1.7,0.7,2.8,0.7
			c1.8,0,3-0.7,3.6-2c0.2-0.4,0.3-1,0.3-1.5c0-0.6-0.1-1.1-0.3-1.7C210.6,77.6,210.3,77.1,210,76.7z"/>
		<path class="st2" d="M215.6,75.7c0-1.2,0.2-2.4,0.7-3.4c0.5-1,1.1-1.9,1.9-2.7c0.8-0.7,1.7-1.3,2.7-1.7c1-0.4,2.1-0.6,3.3-0.6
			s2.3,0.2,3.3,0.7c1,0.4,1.9,1,2.6,1.8c1.5,1.6,2.3,3.7,2.3,6.2c0,2.4-0.8,4.3-2.4,5.9c-1.6,1.6-3.7,2.4-6.2,2.4
			c-2.4,0-4.5-0.8-6-2.5C216.4,80.2,215.6,78.2,215.6,75.7z M217.7,75c0,1.1,0.2,2.1,0.5,3.1c0.3,1,0.8,1.9,1.5,2.7
			c1.4,1.6,3.1,2.5,5.2,2.5c1.6,0,2.9-0.6,3.9-1.8c1.1-1.2,1.6-2.9,1.6-4.9c0-2.4-0.6-4.4-1.9-5.9c-1.3-1.5-2.9-2.3-4.8-2.3
			c-1.6,0-3,0.6-4.1,1.8C218.3,71.4,217.7,73.1,217.7,75z"/>
		<path class="st2" d="M250.9,76.2c0.3,0,0.5,0.1,0.5,0.4c0,0.1,0,0.2-0.1,0.3c-0.1,0.1-0.2,0.1-0.3,0.2c-0.2,0.1-0.3,0.1-0.3,0.2
			c-0.1,0.1-0.1,0.2-0.2,0.4c-0.1,0.4-0.1,0.8-0.1,1.3c0,0.5,0,0.8,0,1c0,0.2,0,0.3,0,0.5c0,0.6,0.1,1,0.1,1.2
			c0,0.2,0.1,0.4,0.1,0.5c0,0.2-0.1,0.4-0.3,0.5c-0.2,0.2-0.5,0.4-0.8,0.5c-0.4,0.2-0.8,0.3-1.2,0.5c-0.5,0.1-0.9,0.3-1.4,0.3
			c-1,0.2-1.9,0.3-2.8,0.3c-2.9,0-5.2-0.8-6.9-2.5c-1.5-1.5-2.3-3.5-2.3-5.8c0-2.6,0.9-4.7,2.6-6.3c1.7-1.6,4-2.4,6.8-2.4
			c2.1,0,3.8,0.3,5,0.8c0.2,0.1,0.4,0.2,0.5,0.3c0.2,0.2,0.3,0.6,0.3,1c0,0.5,0,0.8,0.1,1c0,0.4,0,0.7,0,0.8c0,0.3-0.1,0.5-0.3,0.5
			c-0.2,0-0.4-0.2-0.5-0.6c-0.1-0.4-0.4-0.8-0.7-1.1c-0.4-0.4-0.8-0.7-1.3-0.9c-1-0.5-2.1-0.7-3.2-0.7c-1.2,0-2.2,0.2-3,0.5
			c-0.8,0.3-1.5,0.8-2.1,1.4c-1.2,1.3-1.8,2.9-1.8,5.1c0,2.3,0.7,4.2,2.1,5.8c0.7,0.7,1.4,1.3,2.3,1.8c0.9,0.4,1.9,0.6,3,0.6
			c1.7,0,2.8-0.3,3.3-1c0.3-0.4,0.5-1,0.5-1.7V78c0-0.4-0.1-0.6-0.3-0.7c-0.2-0.1-0.6-0.2-1-0.2c-0.7,0-1-0.2-1-0.5s0.3-0.5,0.8-0.5
			l2.5,0.2L250.9,76.2z"/>
		<path class="st2" d="M253.8,84.1c-0.4,0.1-0.8,0.1-1.2,0.1c-0.4,0-0.6-0.1-0.6-0.4s0.2-0.4,0.6-0.4c0.4,0,0.7-0.1,0.9-0.2
			c0.3-0.3,0.5-0.7,0.8-1.2c0.3-0.6,0.5-1.1,0.8-1.6c0.2-0.5,0.5-1.1,0.8-1.7c0.3-0.7,0.6-1.4,1-2.2c0.4-0.8,0.7-1.7,1.1-2.6
			c1-2.4,1.7-4,2.1-4.9c0.3-0.8,0.5-1.3,0.6-1.4c0-0.1,0.1-0.2,0.1-0.2c0.1-0.2,0.2-0.3,0.3-0.3s0.1,0,0.2,0c0,0,0.1,0.1,0.2,0.1
			c0.1,0.2,0.2,0.4,0.4,0.7c0.1,0.3,0.3,0.7,0.5,1.2c0.2,0.5,0.4,1.1,0.7,1.8c0.3,0.7,0.6,1.4,0.9,2.1c0.3,0.8,0.6,1.5,0.9,2.3
			c0.3,0.8,0.6,1.5,0.9,2.2c0.3,0.7,0.5,1.3,0.8,1.9c0.7,1.7,1.1,2.7,1.3,3.1c0.2,0.3,0.4,0.6,0.5,0.7c0.2,0.2,0.5,0.3,0.9,0.3
			c0.4,0,0.6,0.1,0.6,0.4s-0.3,0.4-0.8,0.4c-0.2,0-0.4,0-0.6,0c-0.2,0-0.3,0-0.5-0.1c-0.5-0.1-0.9-0.1-1.3-0.1l-2.4,0.2
			c-0.5,0-0.8-0.2-0.8-0.5c0-0.2,0.1-0.4,0.4-0.4l0.7,0.1c0.3,0,0.5-0.1,0.6-0.2c0.1-0.1,0.1-0.3,0.1-0.5c0-0.4-0.2-1-0.5-1.8
			l-1-2.5H257c-0.2,0.5-0.4,0.9-0.5,1.3c-0.2,0.4-0.3,0.8-0.5,1.2c-0.2,0.6-0.3,1.1-0.3,1.5c0,0.4,0.1,0.6,0.2,0.8
			c0.1,0.2,0.4,0.3,0.7,0.3l0.7-0.1c0.3,0,0.4,0.1,0.4,0.4c0,0.3-0.3,0.5-0.8,0.5l-2-0.2C254.5,84,254.1,84,253.8,84.1z M263.4,77.4
			l-2.9-7.3c-0.6,1.4-1.6,3.8-3,7.3H263.4z"/>
		<path class="st2" d="M271.1,84.2c-0.5,0-0.8-0.2-0.8-0.5c0-0.2,0.1-0.4,0.4-0.4l0.6,0.1c0.5,0,0.8-0.3,1-0.8
			c0.1-0.5,0.2-1.3,0.2-2.5v-8.6c0-1.2-0.1-2-0.2-2.3c-0.1-0.4-0.3-0.6-0.4-0.8c-0.2-0.1-0.4-0.2-0.6-0.2l-0.6,0
			c-0.3,0-0.4-0.1-0.4-0.4c0-0.3,0.2-0.5,0.7-0.5c0.4,0,0.8,0,1.2,0.1c0.3,0.1,0.7,0.1,1,0.1c0.9,0,1.6,0,2.1-0.1
			c0.9-0.1,1.9-0.2,3-0.2c1.1,0,2.2,0.2,3.3,0.6c1.1,0.4,2.1,1,2.9,1.7c1.7,1.6,2.6,3.6,2.6,6.1c0,2.4-0.8,4.4-2.5,6
			c-1.7,1.7-4,2.5-6.8,2.5c-0.7,0-1.3,0-2-0.1c-1.2-0.1-2-0.2-2.6-0.2L271.1,84.2z M274.4,78.4c0,1.4,0,2.8,0.1,4
			c1.1,0.6,2.3,0.8,3.6,0.8c1,0,2-0.2,3.1-0.7c1.7-0.7,2.8-2,3.3-3.9c0.2-0.7,0.3-1.5,0.3-2.6c0-1.1-0.2-2.1-0.5-3.1
			c-0.4-1-0.9-1.8-1.5-2.5c-1.3-1.4-3.1-2.1-5.4-2.1c-1.6,0-2.5,0.2-2.8,0.6c-0.1,0.2-0.2,0.5-0.2,0.8c0,0.3,0,0.6,0,0.8V78.4z"/>
		<path class="st2" d="M289.4,75.7c0-1.2,0.2-2.4,0.7-3.4c0.5-1,1.1-1.9,1.9-2.7c0.8-0.7,1.7-1.3,2.7-1.7c1-0.4,2.1-0.6,3.3-0.6
			s2.3,0.2,3.3,0.7c1,0.4,1.9,1,2.6,1.8c1.5,1.6,2.3,3.7,2.3,6.2c0,2.4-0.8,4.3-2.4,5.9c-1.6,1.6-3.7,2.4-6.2,2.4
			c-2.4,0-4.5-0.8-6-2.5C290.2,80.2,289.4,78.2,289.4,75.7z M291.5,75c0,1.1,0.2,2.1,0.5,3.1c0.3,1,0.8,1.9,1.5,2.7
			c1.4,1.6,3.1,2.5,5.2,2.5c1.6,0,2.9-0.6,3.9-1.8c1.1-1.2,1.6-2.9,1.6-4.9c0-2.4-0.6-4.4-1.9-5.9c-1.3-1.5-2.9-2.3-4.8-2.3
			c-1.6,0-3,0.6-4.1,1.8C292.1,71.4,291.5,73.1,291.5,75z"/>
		<path class="st2" d="M317,67.8l0.5-0.1c0.2,0,0.4,0.2,0.4,0.6c0,0.4,0.1,0.7,0.1,0.9c0,0.2,0.1,0.4,0.1,0.6c0,0.2,0.1,0.3,0.1,0.5
			c0,0.1,0,0.2,0,0.3c0,0.1,0,0.2-0.1,0.2c-0.1,0.1-0.2,0.1-0.3,0.1c-0.2,0-0.4-0.2-0.5-0.6c-0.3-0.8-0.6-1.2-0.9-1.5
			c-0.5-0.5-1.3-0.7-2.3-0.7c-1.4,0-2.4,0.4-2.9,1.3c-0.2,0.3-0.2,0.6-0.2,1c0,0.4,0.1,0.8,0.3,1.1c0.2,0.4,0.5,0.7,0.9,1.1
			c0.4,0.4,0.9,0.7,1.5,1.1c0.6,0.4,1.3,0.9,2,1.3c0.7,0.5,1.2,0.9,1.6,1.3c0.4,0.4,0.7,0.8,1,1.2c0.5,0.7,0.7,1.4,0.7,2.1
			s-0.1,1.3-0.3,1.8s-0.5,1-1,1.4c-1,0.9-2.4,1.3-4.2,1.3c-0.9,0-2-0.2-3.1-0.6c-0.3-0.1-0.4-0.2-0.5-0.3c-0.1-0.1-0.1-0.4-0.2-0.8
			c-0.1-0.4-0.1-0.7-0.2-1c-0.1-0.3-0.1-0.6-0.2-0.8l-0.2-0.6c0-0.2-0.1-0.3-0.1-0.5c0-0.3,0.1-0.4,0.3-0.4c0.3,0,0.5,0.2,0.6,0.7
			c0.2,0.8,0.4,1.3,0.6,1.6c0.7,0.9,1.5,1.5,2.4,1.8c0.3,0.1,0.6,0.1,1.1,0.1c0.5,0,0.9-0.1,1.3-0.2c0.4-0.1,0.8-0.3,1.1-0.5
			c0.5-0.4,0.8-1,0.8-1.6s-0.2-1.2-0.6-1.7c-0.4-0.5-0.9-1-1.5-1.3c-0.6-0.4-1-0.7-1.3-0.8c-0.3-0.2-0.5-0.3-0.8-0.5
			c-2.1-1.4-3.3-2.7-3.6-4.1c-0.1-0.4-0.1-0.8-0.1-1.2c0-0.5,0.1-0.9,0.3-1.4c0.2-0.5,0.6-0.9,1-1.3c0.9-0.8,2.1-1.2,3.6-1.2
			c0.7,0,1.2,0.1,1.6,0.2C316.5,67.7,316.9,67.8,317,67.8z"/>
		<path class="st2" d="M328,84.2c-0.5,0-0.8-0.2-0.8-0.5c0-0.2,0.1-0.4,0.4-0.4l0.6,0.1c0.5,0,0.8-0.3,1-0.8
			c0.1-0.5,0.2-1.3,0.2-2.5v-8.6c0-1.2-0.1-2-0.2-2.3c-0.1-0.4-0.3-0.6-0.4-0.8c-0.2-0.1-0.4-0.2-0.6-0.2l-0.6,0
			c-0.3,0-0.4-0.1-0.4-0.4c0-0.3,0.2-0.5,0.7-0.5c0.4,0,0.8,0,1.2,0.1c0.3,0.1,0.7,0.1,1,0.1c0.9,0,1.6,0,2.1-0.1
			c0.9-0.1,1.9-0.2,3-0.2c1.1,0,2.2,0.2,3.3,0.6c1.1,0.4,2.1,1,2.9,1.7c1.7,1.6,2.6,3.6,2.6,6.1c0,2.4-0.8,4.4-2.5,6
			c-1.7,1.7-4,2.5-6.8,2.5c-0.7,0-1.3,0-2-0.1c-1.2-0.1-2-0.2-2.6-0.2L328,84.2z M331.4,78.4c0,1.4,0,2.8,0.1,4
			c1.1,0.6,2.3,0.8,3.7,0.8c1,0,2-0.2,3.1-0.7c1.7-0.7,2.8-2,3.3-3.9c0.2-0.7,0.3-1.5,0.3-2.6c0-1.1-0.2-2.1-0.5-3.1
			c-0.4-1-0.9-1.8-1.5-2.5c-1.3-1.4-3.1-2.1-5.4-2.1c-1.6,0-2.5,0.2-2.8,0.6c-0.1,0.2-0.2,0.5-0.2,0.8c0,0.3,0,0.6,0,0.8V78.4z"/>
		<path class="st2" d="M346.6,84.2c-0.4,0-0.7-0.2-0.7-0.5c0-0.2,0.1-0.4,0.4-0.4l0.6,0.1c0.5,0,0.8-0.2,0.9-0.6
			c0.2-0.4,0.3-1.3,0.3-2.7v-8.7c0-1.3-0.1-2.2-0.2-2.5c-0.1-0.3-0.3-0.6-0.4-0.7c-0.2-0.1-0.3-0.1-0.6-0.1l-0.6,0
			c-0.3,0-0.4-0.1-0.4-0.4c0-0.3,0.2-0.5,0.7-0.5s0.8,0,1.1,0c0.3,0,0.6,0,0.8,0.1c0.8,0.1,1.4,0.1,1.8,0.1s0.9,0,1.4,0s1,0,1.6-0.1
			c1.6-0.1,2.7-0.1,3.3-0.1s1,0,1,0.1c0.1,0.1,0.1,0.2,0.1,0.3s0,0.2,0,0.4c0,0.1,0,0.2,0,0.4c0,0.2,0,0.5-0.1,0.8
			c0,0.4-0.1,0.6-0.1,0.7c-0.1,0.1-0.1,0.2-0.2,0.2c-0.1,0-0.2,0-0.2-0.1c0-0.1-0.1-0.2-0.2-0.4c-0.1-0.2-0.2-0.4-0.4-0.5
			c-0.2-0.2-0.5-0.3-0.8-0.4c-0.7-0.2-2.1-0.3-4.1-0.3h-1.1c-0.2,0-0.3,0-0.4,0.1c-0.1,0.1-0.1,0.2-0.1,0.4v5.1
			c1,0.1,1.8,0.2,2.4,0.2s1.1,0,1.4,0s0.5,0,0.7-0.1c0.3-0.1,0.5-0.2,0.7-0.4c0.3-0.4,0.5-0.6,0.7-0.6c0.2,0,0.3,0.1,0.3,0.3
			l-0.4,1.7l0,0.9c0,0.6-0.1,0.9-0.4,0.9c-0.2,0-0.4-0.2-0.4-0.5s0-0.5-0.1-0.7c0-0.2-0.1-0.3-0.3-0.4c-0.3-0.1-0.9-0.2-1.9-0.2
			s-1.9,0-2.7,0.1v2.9c0,1.8,0,3.3,0.1,4.5c0.7,0.1,1.4,0.2,2.1,0.2c0.8,0,1.4,0,2-0.1c0.5,0,1-0.1,1.4-0.2c0.8-0.2,1.4-0.7,1.7-1.4
			c0.2-0.3,0.3-0.4,0.5-0.4c0.2,0,0.2,0.1,0.2,0.4c0,0.1,0,0.2-0.1,0.4c-0.1,0.2-0.2,0.5-0.3,0.9c-0.1,0.4-0.2,0.7-0.3,0.9
			c-0.1,0.2-0.1,0.3-0.2,0.4c-0.1,0.2-0.4,0.2-0.7,0.2c-0.4,0-0.7,0-1,0c-0.3,0-0.7,0-1,0c-0.4,0-1.1,0-2-0.1
			c-2.2-0.1-3.5-0.1-3.9-0.1c-0.4,0-0.7,0.1-0.9,0.1c-0.2,0-0.4,0-0.6,0.1S346.9,84.2,346.6,84.2z"/>
		<path class="st2" d="M382.4,71.2c0,0.3-0.1,0.5-0.3,0.5c-0.2,0-0.4-0.2-0.5-0.6c-0.1-0.4-0.4-0.8-0.7-1.1
			c-0.4-0.3-0.8-0.6-1.3-0.9c-1-0.5-2.1-0.7-3.3-0.7c-1.2,0-2.2,0.2-3,0.5c-0.9,0.3-1.6,0.8-2.2,1.3c-1.3,1.2-1.9,2.9-1.9,5
			c0,2.3,0.7,4.3,2.1,5.8c1.4,1.5,3.2,2.3,5.5,2.3c2.5,0,4.4-1.1,5.7-3.4c0.1-0.1,0.2-0.2,0.3-0.2c0.1,0,0.2,0.1,0.3,0.3
			c0.1,0.2,0.1,0.4,0.1,0.7c0,0.4-0.3,0.9-1,1.6c-0.7,0.7-1.5,1.2-2.5,1.6c-1,0.4-2.1,0.6-3.5,0.6c-1.3,0-2.6-0.2-3.7-0.6
			c-1.2-0.4-2.2-1-3-1.8c-1.7-1.5-2.6-3.5-2.6-5.8c0-2.6,0.9-4.7,2.6-6.3c1.7-1.6,4-2.4,6.9-2.4c2.1,0,3.7,0.3,5.1,0.8
			c0.3,0.1,0.4,0.2,0.5,0.3c0.2,0.2,0.3,0.6,0.3,1c0,0.5,0,0.8,0.1,0.9C382.3,70.8,382.4,71.1,382.4,71.2z"/>
		<path class="st2" d="M385.4,84.2c-0.5,0-0.8-0.2-0.8-0.5c0-0.2,0.1-0.4,0.4-0.4l0.6,0.1c0.4,0,0.7-0.2,0.9-0.6
			c0.2-0.5,0.3-1.4,0.3-2.7v-8.6c0-1.3-0.1-2.2-0.2-2.5c-0.1-0.3-0.3-0.6-0.4-0.6c-0.2-0.1-0.3-0.1-0.5-0.1l-0.6,0
			c-0.3,0-0.4-0.1-0.4-0.4c0-0.3,0.2-0.5,0.7-0.5c0.4,0,0.9,0,1.3,0.1c0.4,0.1,0.8,0.1,1.3,0.1s0.9,0,1.2-0.1s0.8-0.1,1.3-0.1
			c0.4,0,0.7,0.2,0.7,0.5c0,0.2-0.1,0.4-0.4,0.4l-0.6,0c-0.4,0-0.7,0.2-0.9,0.6c-0.2,0.5-0.3,1.4-0.3,2.7v2.8h8.6v-2.8
			c0-1.3-0.1-2.2-0.2-2.5c-0.1-0.3-0.3-0.6-0.4-0.6c-0.2-0.1-0.3-0.1-0.5-0.1l-0.6,0c-0.3,0-0.4-0.1-0.4-0.4c0-0.3,0.2-0.5,0.7-0.5
			c0.4,0,0.9,0,1.3,0.1c0.4,0.1,0.8,0.1,1.3,0.1s0.9,0,1.2-0.1s0.8-0.1,1.3-0.1c0.4,0,0.7,0.2,0.7,0.5c0,0.2-0.1,0.4-0.4,0.4l-0.6,0
			c-0.4,0-0.7,0.2-0.9,0.6c-0.2,0.5-0.3,1.4-0.3,2.7v8.6c0,1.3,0.1,2.2,0.2,2.5c0.1,0.4,0.3,0.6,0.4,0.7c0.2,0.1,0.3,0.1,0.5,0.1
			l0.6-0.1c0.3,0,0.4,0.1,0.4,0.4c0,0.3-0.3,0.5-0.8,0.5c-0.3,0-0.6,0-0.9-0.1c-0.5-0.1-1-0.1-1.5-0.1s-1,0-1.4,0.1
			c-0.4,0.1-0.8,0.1-1,0.1c-0.5,0-0.8-0.2-0.8-0.5c0-0.2,0.1-0.4,0.4-0.4l0.6,0.1c0.4,0,0.7-0.2,0.9-0.6c0.2-0.5,0.3-1.4,0.3-2.7
			v-4.7h-8.6v4.7c0,1.3,0.1,2.2,0.2,2.5c0.1,0.4,0.3,0.6,0.4,0.7c0.2,0.1,0.3,0.1,0.5,0.1l0.6-0.1c0.3,0,0.4,0.1,0.4,0.4
			c0,0.3-0.3,0.5-0.8,0.5c-0.3,0-0.6,0-0.9-0.1c-1-0.2-1.8-0.2-2.5-0.1C386.2,84.1,385.7,84.2,385.4,84.2z"/>
		<path class="st2" d="M404.2,84.2c-0.5,0-0.8-0.2-0.8-0.5c0-0.2,0.1-0.4,0.4-0.4l0.6,0.1c0.4,0,0.7-0.2,0.9-0.6
			c0.2-0.5,0.3-1.4,0.3-2.7l-0.1-8.6c0-1.3-0.1-2.2-0.2-2.5c-0.1-0.3-0.3-0.6-0.4-0.6c-0.2-0.1-0.3-0.1-0.5-0.1l-0.6,0
			c-0.3,0-0.4-0.1-0.4-0.4c0-0.3,0.2-0.5,0.7-0.5c0.4,0,0.9,0,1.3,0.1c0.4,0.1,0.8,0.1,1.3,0.1s0.9,0,1.3-0.1s0.8-0.1,1.3-0.1
			c0.4,0,0.7,0.2,0.7,0.5c0,0.2-0.1,0.4-0.4,0.4l-0.6,0c-0.4,0-0.7,0.2-0.9,0.6c-0.2,0.5-0.3,1.4-0.3,2.7l0.1,8.6
			c0,1.3,0.1,2.1,0.2,2.5c0.2,0.4,0.3,0.6,0.5,0.7c0.2,0.1,0.3,0.1,0.6,0.1l0.6-0.1c0.3,0,0.4,0.1,0.4,0.4c0,0.3-0.3,0.5-0.8,0.5
			c-0.3,0-0.6,0-0.9-0.1c-1-0.2-1.9-0.2-2.6-0.1C404.9,84.1,404.4,84.2,404.2,84.2z"/>
		<path class="st2" d="M412.2,84.2c-0.4,0-0.7-0.2-0.7-0.5c0-0.2,0.1-0.4,0.4-0.4l0.6,0.1c0.5,0,0.8-0.3,1-0.8
			c0.1-0.5,0.2-1.3,0.2-2.5v-8.6c0-1.2-0.1-2-0.2-2.3c-0.1-0.4-0.3-0.6-0.4-0.8c-0.2-0.1-0.4-0.2-0.6-0.2l-0.6,0
			c-0.3,0-0.4-0.1-0.4-0.4c0-0.3,0.2-0.5,0.7-0.5c0.4,0,0.9,0,1.3,0.1c0.4,0.1,0.8,0.1,1.3,0.1s0.9,0,1.2-0.1s0.8-0.1,1.3-0.1
			c0.4,0,0.7,0.2,0.7,0.5c0,0.2-0.1,0.4-0.4,0.4l-0.6,0c-0.5,0-0.8,0.3-1,0.8c-0.1,0.4-0.2,1.3-0.2,2.5v6.9c0,1.8,0,3.3,0.1,4.4
			c0.6,0.2,1.3,0.2,2,0.2c0.7,0,1.3,0,1.9-0.1c0.5-0.1,1-0.2,1.4-0.4c0.7-0.3,1.3-0.8,1.7-1.5c0.2-0.3,0.3-0.4,0.5-0.4
			c0.2,0,0.2,0.1,0.2,0.4c0,0.1,0,0.2-0.1,0.4c-0.1,0.2-0.2,0.5-0.3,0.9c-0.1,0.4-0.2,0.7-0.3,1c-0.1,0.2-0.2,0.4-0.3,0.6
			c-0.2,0.3-0.5,0.4-0.8,0.4s-0.7,0-1,0c-0.3,0-0.6,0-1,0c-0.3,0-0.7,0-1.1,0c-0.4,0-0.8,0-1.3-0.1s-0.9,0-1.3-0.1s-0.7,0-1.1,0
			s-0.7,0-0.9,0s-0.5,0-0.7,0.1c-0.2,0-0.4,0-0.6,0.1S412.4,84.2,412.2,84.2z"/>
		<path class="st2" d="M425.5,84.2c-0.4,0-0.7-0.2-0.7-0.5c0-0.2,0.1-0.4,0.4-0.4l0.6,0.1c0.5,0,0.8-0.2,0.9-0.6
			c0.2-0.4,0.3-1.3,0.3-2.7v-8.7c0-1.3-0.1-2.2-0.2-2.5c-0.1-0.3-0.3-0.6-0.4-0.7c-0.2-0.1-0.3-0.1-0.6-0.1l-0.6,0
			c-0.3,0-0.4-0.1-0.4-0.4c0-0.3,0.2-0.5,0.7-0.5s0.8,0,1.1,0c0.3,0,0.6,0,0.8,0.1c0.8,0.1,1.4,0.1,1.8,0.1s0.9,0,1.4,0s1,0,1.6-0.1
			c1.6-0.1,2.7-0.1,3.3-0.1s1,0,1,0.1c0.1,0.1,0.1,0.2,0.1,0.3s0,0.2,0,0.4c0,0.1,0,0.2,0,0.4c0,0.2,0,0.5-0.1,0.8
			c0,0.4-0.1,0.6-0.1,0.7c-0.1,0.1-0.1,0.2-0.2,0.2c-0.1,0-0.2,0-0.2-0.1c0-0.1-0.1-0.2-0.2-0.4c-0.1-0.2-0.2-0.4-0.4-0.5
			c-0.2-0.2-0.5-0.3-0.8-0.4c-0.7-0.2-2.1-0.3-4.1-0.3h-1.1c-0.2,0-0.3,0-0.4,0.1c-0.1,0.1-0.1,0.2-0.1,0.4v5.1
			c1,0.1,1.8,0.2,2.4,0.2s1.1,0,1.4,0s0.5,0,0.7-0.1c0.3-0.1,0.5-0.2,0.7-0.4c0.3-0.4,0.5-0.6,0.7-0.6c0.2,0,0.3,0.1,0.3,0.3
			l-0.4,1.7l0,0.9c0,0.6-0.1,0.9-0.4,0.9c-0.2,0-0.4-0.2-0.4-0.5s0-0.5-0.1-0.7c0-0.2-0.1-0.3-0.3-0.4c-0.3-0.1-0.9-0.2-1.9-0.2
			s-1.9,0-2.7,0.1v2.9c0,1.8,0,3.3,0.1,4.5c0.7,0.1,1.4,0.2,2.1,0.2c0.8,0,1.4,0,2-0.1c0.5,0,1-0.1,1.4-0.2c0.8-0.2,1.4-0.7,1.7-1.4
			c0.2-0.3,0.3-0.4,0.5-0.4c0.2,0,0.2,0.1,0.2,0.4c0,0.1,0,0.2-0.1,0.4c-0.1,0.2-0.2,0.5-0.3,0.9c-0.1,0.4-0.2,0.7-0.3,0.9
			c-0.1,0.2-0.1,0.3-0.2,0.4c-0.1,0.2-0.4,0.2-0.7,0.2c-0.4,0-0.7,0-1,0c-0.3,0-0.7,0-1,0c-0.4,0-1.1,0-2-0.1
			c-2.2-0.1-3.5-0.1-3.9-0.1c-0.4,0-0.7,0.1-0.9,0.1c-0.2,0-0.4,0-0.6,0.1S425.8,84.2,425.5,84.2z"/>
	</g>
	<path class="st3" d="M28.7,18.3"/>
	<path class="st3" d="M8.1,18.3"/>
	<path class="st3" d="M11.9,29.9"/>
	<path class="st3" d="M18,11.1"/>
	<path class="st3" d="M8.1,18.3"/>
	<path class="st3" d="M27.9,18.3"/>
	<path class="st3" d="M18,11.1"/>
	<rect x="367.4" y="109.7" class="st4" width="115.5" height="10.2"/>
</g>
<g>
	<path class="st2" d="M103.8,38.6l1.8,27.1h-1.8c-2.4-8.1-5.9-13.9-10.4-17.5c-4.5-3.6-9.9-5.3-16.2-5.3c-5.3,0-10.1,1.3-14.3,4
		c-4.3,2.7-7.6,7-10.1,12.8c-2.4,5.9-3.7,13.2-3.7,21.9c0,7.2,1.2,13.5,3.5,18.7c2.3,5.3,5.8,9.3,10.4,12.2
		c4.6,2.8,9.9,4.2,15.9,4.2c5.2,0,9.7-1.1,13.7-3.3c4-2.2,8.3-6.6,13-13.2l1.8,1.2c-4,7.1-8.7,12.3-14,15.6
		c-5.3,3.3-11.6,4.9-19,4.9c-13.2,0-23.4-4.9-30.7-14.7c-5.4-7.3-8.1-15.9-8.1-25.7c0-7.9,1.8-15.3,5.3-21.9
		c3.6-6.7,8.5-11.8,14.7-15.5c6.2-3.7,13.1-5.5,20.5-5.5c5.8,0,11.4,1.4,17,4.2c1.6,0.9,2.8,1.3,3.5,1.3c1.1,0,2-0.4,2.8-1.1
		c1-1.1,1.7-2.5,2.2-4.4H103.8z"/>
</g>
<g>
	<path class="st2" d="M142.2,94.4h-30.8L106,107c-1.3,3.1-2,5.4-2,6.9c0,1.2,0.6,2.3,1.7,3.2c1.2,0.9,3.7,1.5,7.5,1.8v2.2H73.3v-2.2
		c3.3-0.6,5.5-1.4,6.5-2.3c2-1.9,17.3,3,21.4-11.5l28-65.5h2.1l27.7,66.3c2.2,5.3,4.3,8.8,6.1,10.4c1.8,1.6,4.4,2.5,7.6,2.7v2.2
		h-31.4v-2.2c3.2-0.2,5.3-0.7,6.4-1.6c1.1-0.9,1.7-2,1.7-3.3c0-1.7-0.8-4.4-2.3-8.2L142.2,94.4z M140.6,90.1l-13.5-32.2l-13.9,32.2
		H140.6z"/>
</g>
</svg>
